HIERARCHY
ROOT Hips
{
	OFFSET 0.00000 0.00000 0.00000
	CHANNELS 6 Xposition Yposition Zposition Zrotation Yrotation Xrotation 
	JOINT LHipJoint
	{
		OFFSET 0 0 0
		CHANNELS 3 Zrotation Yrotation Xrotation
		JOINT LeftUpLeg
		{
			OFFSET 1.41496 -1.84582 0.78394
			CHANNELS 3 Zrotation Yrotation Xrotation
			JOINT LeftLeg
			{
				OFFSET 2.58040 -7.08960 0.00000
				CHANNELS 3 Zrotation Yrotation Xrotation
				JOINT LeftFoot
				{
					OFFSET 2.64719 -7.27309 0.00000
					CHANNELS 3 Zrotation Yrotation Xrotation
					JOINT LeftToeBase
					{
						OFFSET 0.20718 -0.56921 2.20259
						CHANNELS 3 Zrotation Yrotation Xrotation
						End Site
						{
							OFFSET 0.00000 -0.00000 1.14243
						}
					}
				}
			}
		}
	}
	JOINT RHipJoint
	{
		OFFSET 0 0 0
		CHANNELS 3 Zrotation Yrotation Xrotation
		JOINT RightUpLeg
		{
			OFFSET -1.40551 -1.84582 0.78394
			CHANNELS 3 Zrotation Yrotation Xrotation
			JOINT RightLeg
			{
				OFFSET -2.56572 -7.04926 0.00000
				CHANNELS 3 Zrotation Yrotation Xrotation
				JOINT RightFoot
				{
					OFFSET -2.57974 -7.08778 0.00000
					CHANNELS 3 Zrotation Yrotation Xrotation
					JOINT RightToeBase
					{
						OFFSET -0.26704 -0.73369 2.20815
						CHANNELS 3 Zrotation Yrotation Xrotation
						End Site
						{
							OFFSET -0.00000 -0.00000 1.16246
						}
					}
				}
			}
		}
	}
	JOINT LowerBack
	{
		OFFSET 0 0 0
		CHANNELS 3 Zrotation Yrotation Xrotation
		JOINT Spine
		{
			OFFSET -0.04690 2.05196 -0.07017
			CHANNELS 3 Zrotation Yrotation Xrotation
			JOINT Spine1
			{
				OFFSET 0.04085 2.05260 0.00800
				CHANNELS 3 Zrotation Yrotation Xrotation
				JOINT Neck
				{
					OFFSET 0 0 0
					CHANNELS 3 Zrotation Yrotation Xrotation
					JOINT Neck1
					{
						OFFSET -0.03582 1.80995 0.19301
						CHANNELS 3 Zrotation Yrotation Xrotation
						JOINT Head
						{
							OFFSET 0.00952 1.80195 -0.36389
							CHANNELS 3 Zrotation Yrotation Xrotation
							End Site
							{
								OFFSET 0.00392 1.85062 -0.14494
							}
						}
					}
				}
				JOINT LeftShoulder
				{
					OFFSET 0 0 0
					CHANNELS 3 Zrotation Yrotation Xrotation
					JOINT LeftArm
					{
						OFFSET 3.55224 1.39726 -0.13667
						CHANNELS 3 Zrotation Yrotation Xrotation
						JOINT LeftForeArm
						{
							OFFSET 5.14507 -0.00000 -0.00000
							CHANNELS 3 Zrotation Yrotation Xrotation
							JOINT LeftHand
							{
								OFFSET 3.50646 -0.00000 0.00000
								CHANNELS 3 Zrotation Yrotation Xrotation
								JOINT LeftFingerBase
								{
									OFFSET 0 0 0
									CHANNELS 3 Zrotation Yrotation Xrotation
									JOINT LeftHandIndex1
									{
										OFFSET 0.62997 -0.00000 0.00000
										CHANNELS 3 Zrotation Yrotation Xrotation
										End Site
										{
											OFFSET 0.50790 -0.00000 0.00000
										}
									}
								}
								JOINT LThumb
								{
									OFFSET 0 0 0
									CHANNELS 3 Zrotation Yrotation Xrotation
									End Site
									{
										OFFSET 0.51565 -0.00000 0.51565
									}
								}
							}
						}
					}
				}
				JOINT RightShoulder
				{
					OFFSET 0 0 0
					CHANNELS 3 Zrotation Yrotation Xrotation
					JOINT RightArm
					{
						OFFSET -3.06467 1.61290 -0.28813
						CHANNELS 3 Zrotation Yrotation Xrotation
						JOINT RightForeArm
						{
							OFFSET -5.23200 -0.00000 -0.00000
							CHANNELS 3 Zrotation Yrotation Xrotation
							JOINT RightHand
							{
								OFFSET -3.65641 -0.00000 0.00000
								CHANNELS 3 Zrotation Yrotation Xrotation
								JOINT RightFingerBase
								{
									OFFSET 0 0 0
									CHANNELS 3 Zrotation Yrotation Xrotation
									JOINT RightHandIndex1
									{
										OFFSET -0.65681 -0.00000 0.00000
										CHANNELS 3 Zrotation Yrotation Xrotation
										End Site
										{
											OFFSET -0.52953 -0.00000 0.00000
										}
									}
								}
								JOINT RThumb
								{
									OFFSET 0 0 0
									CHANNELS 3 Zrotation Yrotation Xrotation
									End Site
									{
										OFFSET -0.53762 -0.00000 0.53762
									}
								}
							}
						}
					}
				}
			}
		}
	}
}
MOTION
Frames: 11
Frame Time: 0.0444444
0.00 0.00 0.00 0 0 0 0 0 0 -21 0 0 0 0 0 0 0 0 0 0 0 0 0 0 21 0 0 0 0 0 0 0 0 0 0 0 0 0 0 0 0 0 0 0 0 0 0 -16 0 0 21 0 0 11 0 0 0 -8 0 0 0 0 0 0 0 0 0 0 0 0 0 0 0 0 0 0 0 0 8 0 0 0 0 0 0 0 0 0 0 0 0 0 0 0 0 0
0.00 0.00 0.00 -180.9990 14.7154 -154.1890 0.0000 0.0000 0.0000 -16.2737 -12.8549 -31.8509 12.9574 18.7667 68.9933 -0.0955 -29.0419 -20.0162 0.1160 -2.1959 -6.0473 0.0000 0.0000 0.0000 14.0556 -0.5694 -38.3612 -18.2634 -19.9275 84.9166 -0.3649 -9.3805 -18.4245 -3.3867 11.2962 -33.2854 0.2296 0.5640 14.5103 2.1418 1.0666 -2.2495 1.9438 0.5933 -10.6687 2.3492 3.1825 -15.6575 -5.6029 4.4203 3.1750 -1.7597 2.0144 3.6358 0.0000 -0.0000 0.0000 -85.1528 -2.4560 37.0663 54.5073 -54.6592 -29.8137 -0.0000 0.0000 -0.0942 22.2016 -6.2194 -2.5317 -7.1250 0.0000 -0.0000 -3.3446 23.2694 1.7541 0.0000 -0.0000 0.0000 74.9097 -16.1637 13.3398 -45.1763 50.8545 -22.3754 0.0000 -0.0000 -3.0556 -31.9510 -5.9788 3.7168 7.1250 -0.0000 -0.0000 -4.4371 -36.9841 -0.8771
0.00 0.00 0.00 -182.1360 13.1144 -152.2750 0.0000 0.0000 0.0000 -19.7941 -13.8535 -23.5438 10.0331 17.4284 59.5989 0.7984 -26.0390 -23.1111 0.1045 -2.0850 -5.7406 0.0000 0.0000 0.0000 12.9252 -0.9935 -57.5200 -22.5297 -19.8459 97.4145 -0.7237 -8.4552 -21.2886 -2.5419 9.9138 -28.6979 1.5794 -1.5406 15.5574 3.3827 -1.2728 -2.1293 3.1143 -0.5273 -11.0680 2.4527 3.9814 -14.6218 -5.7684 5.4525 1.9141 -1.9486 2.5681 3.5029 -0.0000 -0.0000 0.0000 -84.8078 -8.2941 38.1308 78.1334 -59.4612 -49.7418 -0.0000 -0.0000 0.7929 22.9190 -6.4502 -2.7194 -7.1250 0.0000 -0.0000 -2.8176 22.9842 1.4954 -0.0000 -0.0000 0.0000 68.9396 -21.1887 16.8521 -49.3591 52.7337 -25.6632 0.0000 -0.0000 -1.8376 -31.5490 -3.3205 2.0367 7.1250 -0.0000 -0.0000 -4.0485 -33.8540 -1.1091
0.00 0.00 0.00 -182.8370 15.2902 -151.0740 0.0000 0.0000 0.0000 -23.3510 -13.0912 -18.4812 8.0476 16.1541 52.7338 0.6167 -23.4817 -20.6175 0.1905 -2.8109 -7.7529 0.0000 0.0000 0.0000 11.3715 1.4505 -67.8602 -22.6722 -19.8279 97.8346 -0.9287 -6.9912 -22.0258 -2.6653 10.1325 -29.4070 2.0400 -2.0124 15.8175 3.6886 -1.7594 -1.4528 3.2880 -0.7683 -10.4503 2.3821 4.7848 -13.7810 -6.6656 6.5808 0.4392 -2.1634 3.1565 2.9181 0.0000 -0.0000 0.0000 -83.7843 -9.2958 37.0822 97.7804 -59.7700 -66.7328 -0.0000 0.0000 -0.0856 23.7153 -8.1257 -3.5530 -7.1250 0.0000 -0.0000 -2.2706 21.1190 1.3010 0.0000 -0.0000 0.0000 64.0574 -22.8508 21.7534 -53.6618 54.3697 -29.1252 0.0000 -0.0000 -0.2800 -30.2052 -1.6436 0.9566 7.1250 -0.0000 -0.0000 -2.9157 -31.8728 -0.9375
0.00 0.00 0.00 -183.3460 19.8176 -150.7720 0.0000 0.0000 0.0000 -27.6191 -10.9513 -14.0234 6.3622 14.7704 46.4186 -0.7365 -21.8199 -9.0022 0.1993 -2.8745 -7.9295 0.0000 0.0000 0.0000 9.7933 5.3456 -74.7936 -21.0205 -19.9750 92.9849 -1.2051 -3.8397 -22.4457 -3.1898 10.9961 -32.2668 2.2358 -1.8858 17.5295 3.3545 -1.5019 -0.1079 2.7614 -0.6466 -9.9582 2.1860 5.5189 -12.4818 -7.7460 7.6050 -1.8180 -2.4533 3.7474 2.0089 0.0000 0.0000 0.0000 -82.2871 -8.5408 34.8065 115.0878 -57.4828 -81.5431 -0.0000 0.0000 -0.1515 25.7144 -10.2092 -4.8787 -7.1250 0.0000 -0.0000 -0.9276 18.6768 0.5818 0.0000 0.0000 0.0000 59.9157 -22.4021 26.9934 -58.0819 55.7768 -32.7500 0.0000 0.0000 0.5998 -30.0720 -1.5040 0.8707 7.1250 -0.0000 -0.0000 -2.8056 -31.7098 -0.9131
0.00 0.00 0.00 -183.6790 25.5678 -151.1940 0.0000 0.0000 0.0000 -31.4868 -8.3646 -11.8959 5.4060 13.8269 42.5485 -1.1688 -18.7321 7.9189 0.4688 -4.3913 -12.1803 0.0000 0.0000 0.0000 9.3007 9.3333 -78.2150 -18.5101 -19.9467 85.6401 -1.4438 0.6713 -22.5215 -3.9650 12.1137 -36.1355 2.0007 -1.5161 20.9240 2.4830 -0.9403 1.6775 1.8355 -0.3354 -9.8919 1.8600 5.9549 -11.1656 -8.7615 8.1981 -4.3315 -2.7568 4.1700 1.0175 -0.0000 0.0000 0.0000 -81.4008 -6.7875 31.1805 123.9527 -55.1612 -88.9262 -0.0000 -0.0000 1.4191 28.7158 -10.8899 -5.9091 -7.1250 0.0000 -0.0000 1.1371 17.6085 -0.7400 -0.0000 0.0000 0.0000 57.4238 -19.2096 31.4530 -61.1340 56.6046 -35.2862 0.0000 0.0000 0.7834 -30.4208 -2.2833 1.3401 7.1250 -0.0000 -0.0000 -3.1039 -32.6165 -0.9425
0.00 0.00 0.00 -184.2200 34.1741 -152.5730 0.0000 0.0000 0.0000 -33.8716 -6.1254 -18.8319 8.5873 16.5347 54.6516 -0.1598 -8.4067 7.9272 1.5207 -7.7868 -22.0684 0.0000 0.0000 0.0000 13.3410 11.8594 -75.7209 -14.5199 -19.2642 73.7862 -1.2865 4.6582 -20.4118 -4.2807 12.5249 -37.6149 1.3999 -1.4235 31.1678 0.7523 -0.0997 6.7531 0.0010 0.4024 -9.4632 2.1478 4.5467 -8.9866 -11.2008 6.1430 -10.7002 -3.9562 3.5663 -1.4365 0.0000 -0.0000 0.0000 -82.5900 -6.4193 22.2177 113.5465 -57.7977 -80.2411 -0.0000 0.0000 -5.6724 27.5918 -7.1787 -3.7365 -7.1250 0.0000 -0.0000 0.5831 21.8914 -0.3237 0.0000 -0.0000 0.0000 56.4952 -5.0764 33.7335 -63.9689 57.2780 -37.6624 0.0000 0.0000 2.2634 -30.0793 -2.2093 1.2791 7.1250 -0.0000 -0.0000 -2.8259 -32.5237 -0.8643
0.00 0.00 0.00 -183.9140 35.4004 -151.9720 0.0000 0.0000 0.0000 -29.4153 -7.7536 -30.9063 13.9458 19.0975 72.0387 -0.0441 -3.8016 2.2038 0.5146 -4.5980 -12.7653 0.0000 0.0000 0.0000 14.1476 11.3879 -70.7459 -14.0795 -19.1380 72.4473 -1.3081 -1.4481 -22.1784 -3.9735 12.1251 -36.1759 1.1924 -2.0921 36.6617 0.5666 -0.2114 8.7651 -0.0536 0.6285 -8.4826 1.4601 2.3326 -6.4493 -11.1058 2.9874 -15.1209 -3.6975 2.3622 -3.2174 0.0000 0.0000 0.0000 -82.8001 -10.2440 18.0277 93.8704 -59.9433 -63.3512 -0.0000 0.0000 -14.7084 28.0878 -5.4267 -2.8893 -7.1250 0.0000 -0.0000 1.0346 23.8340 -0.5284 0.0000 0.0000 0.0000 56.3746 6.0133 32.6423 -64.0985 57.3067 -37.7715 0.0000 0.0000 3.2687 -33.0736 -1.8790 1.2233 7.1250 -0.0000 -0.0000 -5.2324 -32.1930 -1.6462
0.00 0.00 0.00 -182.0280 37.5570 -149.1310 0.0000 0.0000 0.0000 -19.2137 -8.8344 -51.6025 20.0381 20.0000 90.1114 0.2461 -1.0877 -9.0500 0.1333 -2.3531 -6.4827 0.0000 0.0000 0.0000 12.7830 12.9332 -63.8198 -13.7663 -19.0416 71.4895 -1.8679 -5.0201 -28.0174 -4.7720 13.1224 -39.8284 -0.2093 -2.4277 42.5290 0.1345 -0.3157 11.0716 0.2419 0.8648 -7.7698 -0.7767 -0.2606 -3.6866 -8.3050 -0.4869 -19.3133 -2.5210 0.9420 -5.2093 0.0000 -0.0000 0.0000 -80.7212 -16.3928 11.7565 69.8228 -58.4044 -42.6197 -0.0000 0.0000 -19.3525 31.7227 -4.0846 -2.5212 -7.1250 0.0000 -0.0000 3.8223 25.1801 -1.8367 0.0000 -0.0000 0.0000 56.0782 23.3791 31.8995 -63.6640 57.2098 -37.4060 0.0000 0.0000 5.6578 -35.4108 -1.9003 1.3505 7.1250 -0.0000 -0.0000 -7.1158 -32.2569 -2.2347
0.00 0.00 0.00 -179.1490 40.4838 -146.5590 0.0000 0.0000 0.0000 -1.9291 -3.5600 -83.6310 19.0984 19.9805 87.3630 1.1398 -0.4856 -20.0323 0.1417 -2.4259 -6.6844 0.0000 0.0000 0.0000 11.3965 9.7699 -49.8262 -12.8844 -18.7400 68.7662 -2.8874 -8.2199 -35.7588 -6.1958 14.6154 -45.7625 -2.0587 -2.0948 56.9621 -1.9778 0.4004 12.0483 -1.6320 1.7638 -7.7335 -1.4271 -3.8476 0.0410 -3.6181 -5.2415 -21.2384 -0.6910 -1.5991 -6.5197 0.0000 -0.0000 0.0000 -63.5113 -30.6369 3.0400 50.1225 -53.0448 -26.2720 -0.0000 0.0000 -22.9788 35.3491 -3.3523 -2.3751 -7.1250 0.0000 -0.0000 6.6033 25.8648 -3.0804 0.0000 -0.0000 0.0000 48.4344 52.5657 23.4745 -64.7561 57.4496 -38.3253 0.0000 0.0000 11.2354 -38.7979 -1.0760 0.8649 7.1250 -0.0000 -0.0000 -9.7407 -31.2696 -3.3119
0.00 0.00 0.00 -179.7590 39.8832 -142.2600 0.0000 0.0000 0.0000 1.4185 -3.2879 -96.5045 13.8820 19.0778 71.8437 0.9528 -0.5082 -18.2887 0.5173 -4.6098 -12.7988 0.0000 0.0000 0.0000 8.4457 6.1043 -47.8384 -11.9707 -18.3783 65.8960 -3.4969 -5.8198 -37.6796 -6.6160 14.9998 -47.4067 -0.6641 -3.1994 54.9509 -2.7695 -0.0662 13.2699 -2.8509 1.6158 -6.2640 -2.0481 -4.8433 1.1790 -1.6685 -6.5082 -20.4664 0.1329 -2.4061 -6.3964 0.0000 0.0000 0.0000 -50.7188 -37.3284 -0.7868 45.3856 -50.9560 -22.5378 -0.0000 0.0000 -18.5352 35.3073 -3.2207 -2.2786 -7.1250 0.0000 -0.0000 6.5849 26.0269 -3.0466 0.0000 0.0000 0.0000 34.5539 62.2079 10.9743 -61.5769 56.7157 -35.6563 0.0000 0.0000 11.8276 -40.7969 -1.5208 1.3122 7.1250 -0.0000 -0.0000 -11.3867 -31.8526 -3.7273
